<svg width="18" height="18" viewBox="0 0 18 18" fill="none" xmlns="http://www.w3.org/2000/svg">
<circle cx="9" cy="9" r="8.8" fill="black" stroke="#E48900" stroke-width="0.4"/>
<path d="M4.88135 5.6084V7H4.4126V3.44531H5.72363C6.11263 3.44531 6.41699 3.5446 6.63672 3.74316C6.85807 3.94173 6.96875 4.20459 6.96875 4.53174C6.96875 4.87679 6.86051 5.1429 6.64404 5.33008C6.4292 5.51562 6.12077 5.6084 5.71875 5.6084H4.88135ZM4.88135 5.2251H5.72363C5.97428 5.2251 6.16634 5.1665 6.2998 5.04932C6.43327 4.9305 6.5 4.7596 6.5 4.53662C6.5 4.32503 6.43327 4.15576 6.2998 4.02881C6.16634 3.90186 5.98324 3.83594 5.75049 3.83105H4.88135V5.2251ZM7.34229 5.65479C7.34229 5.396 7.39274 5.16325 7.49365 4.95654C7.59619 4.74984 7.73779 4.59033 7.91846 4.47803C8.10075 4.36572 8.30827 4.30957 8.54102 4.30957C8.90072 4.30957 9.19124 4.43408 9.4126 4.68311C9.63558 4.93213 9.74707 5.26335 9.74707 5.67676V5.7085C9.74707 5.96566 9.69743 6.19678 9.59814 6.40186C9.50049 6.60531 9.3597 6.764 9.17578 6.87793C8.99349 6.99186 8.78353 7.04883 8.5459 7.04883C8.18783 7.04883 7.8973 6.92432 7.67432 6.67529C7.45296 6.42627 7.34229 6.09668 7.34229 5.68652V5.65479ZM7.79639 5.7085C7.79639 6.00146 7.86393 6.23665 7.99902 6.41406C8.13574 6.59147 8.31803 6.68018 8.5459 6.68018C8.77539 6.68018 8.95768 6.59066 9.09277 6.41162C9.22786 6.23096 9.29541 5.97868 9.29541 5.65479C9.29541 5.36507 9.22624 5.1307 9.08789 4.95166C8.95117 4.771 8.76888 4.68066 8.54102 4.68066C8.31803 4.68066 8.13818 4.76937 8.00146 4.94678C7.86475 5.12419 7.79639 5.37809 7.79639 5.7085ZM11.5903 4.76367C11.522 4.75228 11.4479 4.74658 11.3682 4.74658C11.0719 4.74658 10.8709 4.87272 10.7651 5.125V7H10.3135V4.3584H10.7529L10.7603 4.66357C10.9084 4.42757 11.1183 4.30957 11.3901 4.30957C11.478 4.30957 11.5448 4.32096 11.5903 4.34375V4.76367ZM12.4351 4.3584L12.4497 4.69043C12.6515 4.43652 12.9152 4.30957 13.2407 4.30957C13.799 4.30957 14.0806 4.62451 14.0854 5.25439V7H13.6338V5.25195C13.6322 5.06152 13.5882 4.92074 13.502 4.82959C13.4173 4.73844 13.2847 4.69287 13.104 4.69287C12.9575 4.69287 12.8289 4.73193 12.7183 4.81006C12.6076 4.88818 12.5213 4.99072 12.4595 5.11768V7H12.0078V4.3584H12.4351Z" fill="white"/>
<rect x="4" y="8" width="10" height="7" rx="0.5" fill="#E48900"/>
<path d="M7.02734 11.8721C6.9834 12.248 6.84424 12.5386 6.60986 12.7437C6.37712 12.9471 6.06706 13.0488 5.67969 13.0488C5.25977 13.0488 4.92285 12.8983 4.66895 12.5972C4.41667 12.2961 4.29053 11.8932 4.29053 11.3887V11.0469C4.29053 10.7165 4.34912 10.4259 4.46631 10.1753C4.58512 9.92464 4.75277 9.73258 4.96924 9.59912C5.18571 9.46403 5.43636 9.39648 5.72119 9.39648C6.0988 9.39648 6.40153 9.50228 6.62939 9.71387C6.85726 9.92383 6.98991 10.2152 7.02734 10.5879H6.55615C6.51546 10.3047 6.42676 10.0996 6.29004 9.97266C6.15495 9.8457 5.96533 9.78223 5.72119 9.78223C5.42171 9.78223 5.18652 9.8929 5.01562 10.1143C4.84635 10.3356 4.76172 10.6506 4.76172 11.0591V11.4033C4.76172 11.7891 4.84229 12.0959 5.00342 12.3237C5.16455 12.5516 5.38997 12.6655 5.67969 12.6655C5.9401 12.6655 6.13949 12.6069 6.27783 12.4897C6.41781 12.3709 6.51058 12.165 6.55615 11.8721H7.02734ZM7.479 11.6548C7.479 11.396 7.52946 11.1632 7.63037 10.9565C7.73291 10.7498 7.87451 10.5903 8.05518 10.478C8.23747 10.3657 8.44499 10.3096 8.67773 10.3096C9.03743 10.3096 9.32796 10.4341 9.54932 10.6831C9.7723 10.9321 9.88379 11.2633 9.88379 11.6768V11.7085C9.88379 11.9657 9.83415 12.1968 9.73486 12.4019C9.63721 12.6053 9.49642 12.764 9.3125 12.8779C9.13021 12.9919 8.92025 13.0488 8.68262 13.0488C8.32454 13.0488 8.03402 12.9243 7.81104 12.6753C7.58968 12.4263 7.479 12.0967 7.479 11.6865V11.6548ZM7.93311 11.7085C7.93311 12.0015 8.00065 12.2367 8.13574 12.4141C8.27246 12.5915 8.45475 12.6802 8.68262 12.6802C8.91211 12.6802 9.0944 12.5907 9.22949 12.4116C9.36458 12.231 9.43213 11.9787 9.43213 11.6548C9.43213 11.3651 9.36296 11.1307 9.22461 10.9517C9.08789 10.771 8.9056 10.6807 8.67773 10.6807C8.45475 10.6807 8.2749 10.7694 8.13818 10.9468C8.00146 11.1242 7.93311 11.3781 7.93311 11.7085ZM10.9409 13H10.4893V10.3584H10.9409V13ZM10.4526 9.65771C10.4526 9.58447 10.4746 9.52262 10.5186 9.47217C10.5641 9.42171 10.6309 9.39648 10.7188 9.39648C10.8066 9.39648 10.8734 9.42171 10.9189 9.47217C10.9645 9.52262 10.9873 9.58447 10.9873 9.65771C10.9873 9.73096 10.9645 9.79199 10.9189 9.84082C10.8734 9.88965 10.8066 9.91406 10.7188 9.91406C10.6309 9.91406 10.5641 9.88965 10.5186 9.84082C10.4746 9.79199 10.4526 9.73096 10.4526 9.65771ZM12.0933 10.3584L12.1079 10.6904C12.3097 10.4365 12.5734 10.3096 12.8989 10.3096C13.4572 10.3096 13.7388 10.6245 13.7437 11.2544V13H13.292V11.252C13.2904 11.0615 13.2464 10.9207 13.1602 10.8296C13.0755 10.7384 12.9429 10.6929 12.7622 10.6929C12.6157 10.6929 12.4871 10.7319 12.3765 10.8101C12.2658 10.8882 12.1795 10.9907 12.1177 11.1177V13H11.666V10.3584H12.0933Z" fill="black"/>
</svg>
