<svg width="45" height="45" viewBox="0 0 45 45" fill="none" xmlns="http://www.w3.org/2000/svg">
<circle cx="22.5" cy="22.5" r="22.1" fill="black" stroke="#E48900" stroke-width="0.8"/>
<path d="M12.1152 13.6602V17H10.9902V8.46875H14.1367C15.0703 8.46875 15.8008 8.70703 16.3281 9.18359C16.8594 9.66016 17.125 10.291 17.125 11.0762C17.125 11.9043 16.8652 12.543 16.3457 12.9922C15.8301 13.4375 15.0898 13.6602 14.125 13.6602H12.1152ZM12.1152 12.7402H14.1367C14.7383 12.7402 15.1992 12.5996 15.5195 12.3184C15.8398 12.0332 16 11.623 16 11.0879C16 10.5801 15.8398 10.1738 15.5195 9.86914C15.1992 9.56445 14.7598 9.40625 14.2012 9.39453H12.1152V12.7402ZM18.0215 13.7715C18.0215 13.1504 18.1426 12.5918 18.3848 12.0957C18.6309 11.5996 18.9707 11.2168 19.4043 10.9473C19.8418 10.6777 20.3398 10.543 20.8984 10.543C21.7617 10.543 22.459 10.8418 22.9902 11.4395C23.5254 12.0371 23.793 12.832 23.793 13.8242V13.9004C23.793 14.5176 23.6738 15.0723 23.4355 15.5645C23.2012 16.0527 22.8633 16.4336 22.4219 16.707C21.9844 16.9805 21.4805 17.1172 20.9102 17.1172C20.0508 17.1172 19.3535 16.8184 18.8184 16.2207C18.2871 15.623 18.0215 14.832 18.0215 13.8477V13.7715ZM19.1113 13.9004C19.1113 14.6035 19.2734 15.168 19.5977 15.5938C19.9258 16.0195 20.3633 16.2324 20.9102 16.2324C21.4609 16.2324 21.8984 16.0176 22.2227 15.5879C22.5469 15.1543 22.709 14.5488 22.709 13.7715C22.709 13.0762 22.543 12.5137 22.2109 12.084C21.8828 11.6504 21.4453 11.4336 20.8984 11.4336C20.3633 11.4336 19.9316 11.6465 19.6035 12.0723C19.2754 12.498 19.1113 13.1074 19.1113 13.9004ZM28.2168 11.6328C28.0527 11.6055 27.875 11.5918 27.6836 11.5918C26.9727 11.5918 26.4902 11.8945 26.2363 12.5V17H25.1523V10.6602H26.207L26.2246 11.3926C26.5801 10.8262 27.084 10.543 27.7363 10.543C27.9473 10.543 28.1074 10.5703 28.2168 10.625V11.6328ZM30.2441 10.6602L30.2793 11.457C30.7637 10.8477 31.3965 10.543 32.1777 10.543C33.5176 10.543 34.1934 11.2988 34.2051 12.8105V17H33.1211V12.8047C33.1172 12.3477 33.0117 12.0098 32.8047 11.791C32.6016 11.5723 32.2832 11.4629 31.8496 11.4629C31.498 11.4629 31.1895 11.5566 30.9238 11.7441C30.6582 11.9316 30.4512 12.1777 30.3027 12.4824V17H29.2188V10.6602H30.2441Z" fill="white"/>
<rect x="10" y="19" width="25" height="17" rx="0.5" fill="#E48900"/>
<path d="M17.2656 29.293C17.1602 30.1953 16.8262 30.8926 16.2637 31.3848C15.7051 31.873 14.9609 32.1172 14.0312 32.1172C13.0234 32.1172 12.2148 31.7559 11.6055 31.0332C11 30.3105 10.6973 29.3438 10.6973 28.1328V27.3125C10.6973 26.5195 10.8379 25.8223 11.1191 25.2207C11.4043 24.6191 11.8066 24.1582 12.3262 23.8379C12.8457 23.5137 13.4473 23.3516 14.1309 23.3516C15.0371 23.3516 15.7637 23.6055 16.3105 24.1133C16.8574 24.6172 17.1758 25.3164 17.2656 26.2109H16.1348C16.0371 25.5312 15.8242 25.0391 15.4961 24.7344C15.1719 24.4297 14.7168 24.2773 14.1309 24.2773C13.4121 24.2773 12.8477 24.543 12.4375 25.0742C12.0312 25.6055 11.8281 26.3613 11.8281 27.3418V28.168C11.8281 29.0938 12.0215 29.8301 12.4082 30.377C12.7949 30.9238 13.3359 31.1973 14.0312 31.1973C14.6562 31.1973 15.1348 31.0566 15.4668 30.7754C15.8027 30.4902 16.0254 29.9961 16.1348 29.293H17.2656ZM18.3496 28.7715C18.3496 28.1504 18.4707 27.5918 18.7129 27.0957C18.959 26.5996 19.2988 26.2168 19.7324 25.9473C20.1699 25.6777 20.668 25.543 21.2266 25.543C22.0898 25.543 22.7871 25.8418 23.3184 26.4395C23.8535 27.0371 24.1211 27.832 24.1211 28.8242V28.9004C24.1211 29.5176 24.002 30.0723 23.7637 30.5645C23.5293 31.0527 23.1914 31.4336 22.75 31.707C22.3125 31.9805 21.8086 32.1172 21.2383 32.1172C20.3789 32.1172 19.6816 31.8184 19.1465 31.2207C18.6152 30.623 18.3496 29.832 18.3496 28.8477V28.7715ZM19.4395 28.9004C19.4395 29.6035 19.6016 30.168 19.9258 30.5938C20.2539 31.0195 20.6914 31.2324 21.2383 31.2324C21.7891 31.2324 22.2266 31.0176 22.5508 30.5879C22.875 30.1543 23.0371 29.5488 23.0371 28.7715C23.0371 28.0762 22.8711 27.5137 22.5391 27.084C22.2109 26.6504 21.7734 26.4336 21.2266 26.4336C20.6914 26.4336 20.2598 26.6465 19.9316 27.0723C19.6035 27.498 19.4395 28.1074 19.4395 28.9004ZM26.6582 32H25.5742V25.6602H26.6582V32ZM25.4863 23.9785C25.4863 23.8027 25.5391 23.6543 25.6445 23.5332C25.7539 23.4121 25.9141 23.3516 26.125 23.3516C26.3359 23.3516 26.4961 23.4121 26.6055 23.5332C26.7148 23.6543 26.7695 23.8027 26.7695 23.9785C26.7695 24.1543 26.7148 24.3008 26.6055 24.418C26.4961 24.5352 26.3359 24.5938 26.125 24.5938C25.9141 24.5938 25.7539 24.5352 25.6445 24.418C25.5391 24.3008 25.4863 24.1543 25.4863 23.9785ZM29.4238 25.6602L29.459 26.457C29.9434 25.8477 30.5762 25.543 31.3574 25.543C32.6973 25.543 33.373 26.2988 33.3848 27.8105V32H32.3008V27.8047C32.2969 27.3477 32.1914 27.0098 31.9844 26.791C31.7812 26.5723 31.4629 26.4629 31.0293 26.4629C30.6777 26.4629 30.3691 26.5566 30.1035 26.7441C29.8379 26.9316 29.6309 27.1777 29.4824 27.4824V32H28.3984V25.6602H29.4238Z" fill="black"/>
</svg>
