<svg width="36" height="28" viewBox="0 0 36 28" fill="none" xmlns="http://www.w3.org/2000/svg">
<path d="M27 12.5H35C35.2761 12.5 35.5 12.7239 35.5 13V27C35.5 27.2761 35.2761 27.5 35 27.5H27C26.7239 27.5 26.5 27.2761 26.5 27V13C26.5 12.7239 26.7239 12.5 27 12.5Z" stroke="#8400B2"/>
<path d="M12.5 2.1H16.5C17.2732 2.1 17.9 2.7268 17.9 3.5V4.5C17.9 5.2732 17.2732 5.9 16.5 5.9H12.5C11.7268 5.9 11.1 5.2732 11.1 4.5V3.5C11.1 2.7268 11.7268 2.1 12.5 2.1Z" fill="#8400B2" stroke="#8400B2" stroke-width="0.2"/>
<path d="M12.5 15.1H16.5C17.2732 15.1 17.9 15.7268 17.9 16.5V17.5C17.9 18.2732 17.2732 18.9 16.5 18.9H12.5C11.7268 18.9 11.1 18.2732 11.1 17.5V16.5C11.1 15.7268 11.7268 15.1 12.5 15.1Z" fill="#8400B2" stroke="#8400B2" stroke-width="0.2"/>
<path d="M32 15.5C32 16.0523 32.4477 16.5 33 16.5C33.5523 16.5 34 16.0523 34 15.5C34 14.9477 33.5523 14.5 33 14.5C32.4477 14.5 32 14.9477 32 15.5Z" fill="#8400B2"/>
<rect x="20" y="2" width="2" height="4" rx="0.5" fill="#8400B2"/>
<rect x="23" y="2" width="2" height="4" rx="0.5" fill="#8400B2"/>
<rect x="20" y="15" width="2" height="4" rx="0.5" fill="#8400B2"/>
<rect x="23" y="15" width="2" height="4" rx="0.5" fill="#8400B2"/>
<rect x="11" y="8" width="14" height="1" rx="0.5" fill="#8400B2"/>
<rect x="11" y="10" width="14" height="1" rx="0.5" fill="#8400B2"/>
<rect x="11" y="12" width="14" height="1" rx="0.5" fill="#8400B2"/>
<rect x="26" y="15" width="5" height="1" rx="0.5" fill="#8400B2"/>
<path d="M32 18.5C32 19.0523 32.4477 19.5 33 19.5C33.5523 19.5 34 19.0523 34 18.5C34 17.9477 33.5523 17.5 33 17.5C32.4477 17.5 32 17.9477 32 18.5Z" fill="#8400B2"/>
<rect x="26" y="18" width="5" height="1" rx="0.5" fill="#8400B2"/>
<path d="M32 21.5C32 22.0523 32.4477 22.5 33 22.5C33.5523 22.5 34 22.0523 34 21.5C34 20.9477 33.5523 20.5 33 20.5C32.4477 20.5 32 20.9477 32 21.5Z" fill="#8400B2"/>
<rect x="26" y="21" width="5" height="1" rx="0.5" fill="#8400B2"/>
<path d="M9 12.5H1C0.723858 12.5 0.5 12.7239 0.5 13V27C0.5 27.2761 0.723858 27.5 1 27.5H9C9.27614 27.5 9.5 27.2761 9.5 27V13C9.5 12.7239 9.27614 12.5 9 12.5Z" stroke="#8400B2"/>
<path d="M4 15.5C4 16.0523 3.55228 16.5 3 16.5C2.44772 16.5 2 16.0523 2 15.5C2 14.9477 2.44772 14.5 3 14.5C3.55228 14.5 4 14.9477 4 15.5Z" fill="#8400B2"/>
<rect width="5" height="1" rx="0.5" transform="matrix(-1 0 0 1 10 15)" fill="#8400B2"/>
<path d="M4 18.5C4 19.0523 3.55228 19.5 3 19.5C2.44772 19.5 2 19.0523 2 18.5C2 17.9477 2.44772 17.5 3 17.5C3.55228 17.5 4 17.9477 4 18.5Z" fill="#8400B2"/>
<rect width="5" height="1" rx="0.5" transform="matrix(-1 0 0 1 10 18)" fill="#8400B2"/>
<path d="M4 21.5C4 22.0523 3.55228 22.5 3 22.5C2.44772 22.5 2 22.0523 2 21.5C2 20.9477 2.44772 20.5 3 20.5C3.55228 20.5 4 20.9477 4 21.5Z" fill="#8400B2"/>
<rect width="5" height="1" rx="0.5" transform="matrix(-1 0 0 1 10 21)" fill="#8400B2"/>
<rect x="11" y="21" width="14" height="1.5" rx="0.5" fill="#8400B2"/>
<rect x="11" y="24" width="14" height="1.5" rx="0.5" fill="#8400B2"/>
<path d="M24 27.5H27" stroke="#8400B2"/>
<path d="M8 27.5H11" stroke="#8400B2"/>
<rect x="9.5" y="0.5" width="17" height="27" rx="1.5" stroke="#8400B2"/>
</svg>
