<svg width="28" height="28" viewBox="0 0 28 28" fill="none" xmlns="http://www.w3.org/2000/svg">
<rect x="16.8492" y="0.707107" width="13.8928" height="22.8284" rx="1.5" transform="rotate(45 16.8492 0.707107)" stroke="#006704"/>
<path d="M20.8864 9.96683C20.8864 11.885 19.3314 13.44 17.4132 13.44C15.495 13.44 13.94 11.885 13.94 9.96683C13.94 8.04864 15.495 6.49364 17.4132 6.49364C19.3314 6.49364 20.8864 8.04864 20.8864 9.96683Z" stroke="#006704" stroke-width="0.5"/>
<path d="M17.4866 6.24432L17.3397 13.6892" stroke="#006704" stroke-width="0.5"/>
<path d="M21.1344 9.84536L13.6919 10.0883" stroke="#006704" stroke-width="0.5"/>
<path d="M13.44 17.4132C13.44 19.3314 11.885 20.8864 9.9668 20.8864C8.04861 20.8864 6.49361 19.3314 6.49361 17.4132C6.49361 15.495 8.04861 13.94 9.9668 13.94C11.885 13.94 13.44 15.495 13.44 17.4132Z" stroke="#006704" stroke-width="0.5"/>
<path d="M10.0402 13.6907L9.89337 21.1356" stroke="#006704" stroke-width="0.5"/>
<path d="M13.688 17.2917L6.24556 17.5347" stroke="#006704" stroke-width="0.5"/>
</svg>
