<svg width="31" height="35" viewBox="0 0 31 35" fill="none" xmlns="http://www.w3.org/2000/svg">
<rect x="16.8492" y="0.707107" width="13.8928" height="22.8284" rx="1.5" transform="rotate(45 16.8492 0.707107)" fill="white" stroke="#0704A7"/>
<path d="M20.8864 9.96683C20.8864 11.885 19.3314 13.44 17.4132 13.44C15.495 13.44 13.94 11.885 13.94 9.96683C13.94 8.04864 15.495 6.49364 17.4132 6.49364C19.3314 6.49364 20.8864 8.04864 20.8864 9.96683Z" stroke="#0704A7" stroke-width="0.5"/>
<path d="M17.4866 6.24432L17.3398 13.6893" stroke="#0704A7" stroke-width="0.5"/>
<path d="M21.1344 9.84537L13.6919 10.0883" stroke="#0704A7" stroke-width="0.5"/>
<path d="M13.44 17.4132C13.44 19.3314 11.885 20.8864 9.96681 20.8864C8.04862 20.8864 6.49362 19.3314 6.49362 17.4132C6.49362 15.495 8.04862 13.94 9.96681 13.94C11.885 13.94 13.44 15.495 13.44 17.4132Z" stroke="#0704A7" stroke-width="0.5"/>
<path d="M10.0402 13.6907L9.89337 21.1356" stroke="#0704A7" stroke-width="0.5"/>
<path d="M13.688 17.2917L6.24558 17.5347" stroke="#0704A7" stroke-width="0.5"/>
<rect x="19.8492" y="7.70711" width="13.8928" height="22.8284" rx="1.5" transform="rotate(45 19.8492 7.70711)" fill="white" stroke="#D30000"/>
<path d="M23.8864 16.9668C23.8864 18.885 22.3314 20.44 20.4132 20.44C18.495 20.44 16.94 18.885 16.94 16.9668C16.94 15.0486 18.495 13.4936 20.4132 13.4936C22.3314 13.4936 23.8864 15.0486 23.8864 16.9668Z" fill="white" stroke="#D30000" stroke-width="0.5"/>
<path d="M20.4866 13.2443L20.3397 20.6893" stroke="#D30000" stroke-width="0.5"/>
<path d="M24.1343 16.8454L16.6919 17.0883" stroke="#D30000" stroke-width="0.5"/>
<path d="M16.44 24.4132C16.44 26.3314 14.885 27.8864 12.9668 27.8864C11.0486 27.8864 9.49361 26.3314 9.49361 24.4132C9.49361 22.495 11.0486 20.94 12.9668 20.94C14.885 20.94 16.44 22.495 16.44 24.4132Z" fill="white" stroke="#D30000" stroke-width="0.5"/>
<path d="M13.0402 20.6907L12.8934 28.1356" stroke="#D30000" stroke-width="0.5"/>
<path d="M16.688 24.2917L9.24556 24.5347" stroke="#D30000" stroke-width="0.5"/>
</svg>
