<svg width="33" height="33" viewBox="0 0 33 33" fill="none" xmlns="http://www.w3.org/2000/svg">
<path d="M18.6782 4.43301L25.6064 8.43301C29.1936 10.5041 30.4227 15.091 28.3516 18.6782L20.6016 32.1016L0.683013 20.6016L8.43301 7.1782C10.5041 3.59101 15.091 2.36195 18.6782 4.43301Z" fill="white" stroke="black"/>
<path d="M17.5458 13.1707L19.0613 14.0457L13.6863 23.3555L12.1708 22.4805L17.5458 13.1707Z" fill="#DC0000" stroke="black" stroke-width="0.25"/>
<path d="M20.4895 19.572L19.6145 21.0876L11.1708 16.2126L12.0458 14.697L20.4895 19.572Z" fill="#DC0000" stroke="black" stroke-width="0.25"/>
<path d="M18.0299 18.2981L17.6603 18.9384L14.1961 16.9384L14.5658 16.2981L18.0299 18.2981Z" fill="#DC0000"/>
<path d="M17.5832 18.7936L17.1603 19.5263L13.6961 17.5263L14.1191 16.7936L17.5832 18.7936Z" fill="#DC0000"/>
<path d="M16.298 15.5851L17.5971 16.3351L15.5971 19.7992L14.298 19.0492L16.298 15.5851Z" fill="#DC0000"/>
</svg>
