<svg width="68" height="48" viewBox="0 0 68 48" fill="none" xmlns="http://www.w3.org/2000/svg">
<path d="M10.6064 38.0442L10.6064 20.5625L43.1064 29.4261L43.1064 46.9079L10.6064 38.0442Z" fill="#8400B2" stroke="black" stroke-width="0.5"/>
<path d="M43.6064 46.6316L43.6064 29.3387L57.1064 15.8387L57.1064 33.1316L43.6064 46.6316Z" fill="#8400B2" stroke="black" stroke-width="0.5"/>
<path d="M10.8378 20.1073L24.4306 6.51453L56.875 15.363L43.2822 28.9558L10.8378 20.1073Z" fill="#A647C7" stroke="black" stroke-width="0.5"/>
<rect x="46.5332" y="28.2835" width="9.7053" height="2.37221" rx="1.18611" transform="rotate(-45.0744 46.5332 28.2835)" fill="#A647C7" stroke="black" stroke-width="0.25"/>
<circle cx="25.9296" cy="33.8084" r="6.5" transform="rotate(15 25.9296 33.8084)" stroke="#D40000"/>
<path d="M21.9161 34.8035L23.0202 30.6832L24.2879 31.0229C24.6502 31.12 24.9517 31.2888 25.1926 31.5292C25.4359 31.7683 25.5973 32.0603 25.6768 32.4051C25.7567 32.748 25.7454 33.111 25.6428 33.4939L25.592 33.6835C25.4894 34.0665 25.3189 34.3858 25.0806 34.6414C24.8441 34.8975 24.5605 35.0693 24.2298 35.1566C23.899 35.2438 23.5532 35.2402 23.1924 35.1455L21.9161 34.8035ZM23.6849 31.5984L22.9478 34.349L23.3582 34.459C23.6902 34.5479 23.973 34.5074 24.2066 34.3375C24.4402 34.1675 24.6129 33.8812 24.7249 33.4785L24.7833 33.2606C24.8955 32.8418 24.8936 32.5016 24.7777 32.24C24.6623 31.9765 24.4376 31.8001 24.1037 31.7106L23.6849 31.5984ZM29.2878 35.3077C29.1369 35.7425 28.8793 36.0475 28.5148 36.2228C28.1523 36.3987 27.7295 36.4219 27.2466 36.2925C26.7183 36.1509 26.3499 35.8621 26.1412 35.4261C25.9348 34.9886 25.9148 34.4596 26.0812 33.8389L26.1486 33.587C26.2548 33.1908 26.4181 32.8605 26.6386 32.5961C26.8591 32.3316 27.1201 32.1539 27.4215 32.0628C27.7253 31.9703 28.0489 31.97 28.3923 32.062C28.8677 32.1894 29.2165 32.4194 29.4388 32.7519C29.6611 33.0845 29.7332 33.4869 29.6551 33.9594L28.8062 33.7319C28.8567 33.4604 28.8338 33.248 28.7373 33.0947C28.6433 32.9401 28.4661 32.8279 28.2057 32.7582C27.9227 32.6824 27.6832 32.7274 27.4871 32.8932C27.2934 33.0576 27.1376 33.3526 27.0195 33.7779L26.9361 34.0892C26.8168 34.5344 26.7966 34.8778 26.8755 35.1193C26.9562 35.3614 27.1418 35.5213 27.4323 35.5992C27.6946 35.6694 27.9058 35.6623 28.0659 35.5778C28.2284 35.492 28.3527 35.3261 28.4388 35.0803L29.2878 35.3077Z" fill="#D40000"/>
<path d="M17.9858 12.7522L50.9809 21.5932L50.8515 22.0762L17.8564 13.2352L17.9858 12.7522Z" fill="black"/>
</svg>
