<svg width="50" height="45" viewBox="0 0 50 45" fill="none" xmlns="http://www.w3.org/2000/svg">
<circle cx="22.5" cy="22.5" r="22.1" fill="black" stroke="#E48900" stroke-width="0.8"/>
<path d="M12.5254 23.4336V29H10.6504V14.7812H15.8945C17.4505 14.7812 18.668 15.1784 19.5469 15.9727C20.4323 16.7669 20.875 17.8184 20.875 19.127C20.875 20.5072 20.4421 21.5716 19.5762 22.3203C18.7168 23.0625 17.4831 23.4336 15.875 23.4336H12.5254ZM12.5254 21.9004H15.8945C16.8971 21.9004 17.6654 21.666 18.1992 21.1973C18.7331 20.722 19 20.0384 19 19.1465C19 18.3001 18.7331 17.623 18.1992 17.1152C17.6654 16.6074 16.9329 16.3438 16.002 16.3242H12.5254V21.9004Z" fill="white"/>
<rect x="23" y="14" width="13" height="16" rx="0.5" fill="#E48900"/>
<path d="M35.1094 24.4883C34.9336 25.9922 34.377 27.1543 33.4395 27.9746C32.5085 28.7884 31.2682 29.1953 29.7188 29.1953C28.0391 29.1953 26.6914 28.5931 25.6758 27.3887C24.6667 26.1842 24.1621 24.5729 24.1621 22.5547V21.1875C24.1621 19.8659 24.3965 18.7038 24.8652 17.7012C25.3405 16.6986 26.0111 15.9303 26.877 15.3965C27.7428 14.8561 28.7454 14.5859 29.8848 14.5859C31.3952 14.5859 32.6061 15.0091 33.5176 15.8555C34.429 16.6953 34.9596 17.8607 35.1094 19.3516H33.2246C33.0618 18.2188 32.707 17.3984 32.1602 16.8906C31.6198 16.3828 30.8613 16.1289 29.8848 16.1289C28.6868 16.1289 27.7461 16.5716 27.0625 17.457C26.3854 18.3424 26.0469 19.6022 26.0469 21.2363V22.6133C26.0469 24.1562 26.3691 25.3835 27.0137 26.2949C27.6582 27.2064 28.5599 27.6621 29.7188 27.6621C30.7604 27.6621 31.5579 27.4277 32.1113 26.959C32.6712 26.4837 33.0423 25.6602 33.2246 24.4883H35.1094Z" fill="black"/>
</svg>
