<svg width="16" height="16" viewBox="0 0 16 16" fill="none" xmlns="http://www.w3.org/2000/svg">
<circle cx="8" cy="8" r="7.8" fill="black" stroke="#E48900" stroke-width="0.4"/>
<path d="M4.41016 8.77344V11H3.66016V5.3125H5.75781C6.38021 5.3125 6.86719 5.47135 7.21875 5.78906C7.57292 6.10677 7.75 6.52734 7.75 7.05078C7.75 7.60286 7.57682 8.02865 7.23047 8.32812C6.88672 8.625 6.39323 8.77344 5.75 8.77344H4.41016ZM4.41016 8.16016H5.75781C6.15885 8.16016 6.46615 8.06641 6.67969 7.87891C6.89323 7.6888 7 7.41536 7 7.05859C7 6.72005 6.89323 6.44922 6.67969 6.24609C6.46615 6.04297 6.17318 5.9375 5.80078 5.92969H4.41016V8.16016Z" fill="white"/>
<rect x="8" y="4" width="5" height="8" rx="0.5" fill="#E48900"/>
<path d="M12.8438 9.19531C12.7734 9.79688 12.5508 10.2617 12.1758 10.5898C11.8034 10.9154 11.3073 11.0781 10.6875 11.0781C10.0156 11.0781 9.47656 10.8372 9.07031 10.3555C8.66667 9.8737 8.46484 9.22917 8.46484 8.42188V7.875C8.46484 7.34635 8.55859 6.88151 8.74609 6.48047C8.9362 6.07943 9.20443 5.77214 9.55078 5.55859C9.89714 5.34245 10.2982 5.23438 10.7539 5.23438C11.3581 5.23438 11.8424 5.40365 12.207 5.74219C12.5716 6.07812 12.7839 6.54427 12.8438 7.14062H12.0898C12.0247 6.6875 11.8828 6.35938 11.6641 6.15625C11.4479 5.95312 11.1445 5.85156 10.7539 5.85156C10.2747 5.85156 9.89844 6.02865 9.625 6.38281C9.35417 6.73698 9.21875 7.24089 9.21875 7.89453V8.44531C9.21875 9.0625 9.34766 9.55339 9.60547 9.91797C9.86328 10.2826 10.224 10.4648 10.6875 10.4648C11.1042 10.4648 11.4232 10.3711 11.6445 10.1836C11.8685 9.99349 12.0169 9.66406 12.0898 9.19531H12.8438Z" fill="black"/>
</svg>
