<svg width="33" height="31" viewBox="0 0 33 31" fill="none" xmlns="http://www.w3.org/2000/svg">
<path d="M13.3604 14.4971V16H12.4814V11.7344H14.1455C14.4658 11.7344 14.7471 11.793 14.9893 11.9102C15.2334 12.0273 15.4209 12.1943 15.5518 12.4111C15.6826 12.626 15.748 12.8711 15.748 13.1465C15.748 13.5645 15.6045 13.8945 15.3174 14.1367C15.0322 14.377 14.6367 14.4971 14.1309 14.4971H13.3604ZM13.3604 13.7852H14.1455C14.3779 13.7852 14.5547 13.7305 14.6758 13.6211C14.7988 13.5117 14.8604 13.3555 14.8604 13.1523C14.8604 12.9434 14.7988 12.7744 14.6758 12.6455C14.5527 12.5166 14.3828 12.4502 14.166 12.4463H13.3604V13.7852ZM19.7031 14.5791C19.6699 15.0381 19.5 15.3994 19.1934 15.6631C18.8887 15.9268 18.4863 16.0586 17.9863 16.0586C17.4395 16.0586 17.0088 15.875 16.6943 15.5078C16.3818 15.1387 16.2256 14.6328 16.2256 13.9902V13.7295C16.2256 13.3193 16.2979 12.958 16.4424 12.6455C16.5869 12.333 16.793 12.0938 17.0605 11.9277C17.3301 11.7598 17.6426 11.6758 17.998 11.6758C18.4902 11.6758 18.8867 11.8076 19.1875 12.0713C19.4883 12.335 19.6621 12.7051 19.709 13.1816H18.8301C18.8086 12.9062 18.7314 12.707 18.5986 12.584C18.4678 12.459 18.2676 12.3965 17.998 12.3965C17.7051 12.3965 17.4854 12.502 17.3389 12.7129C17.1943 12.9219 17.1201 13.2471 17.1162 13.6885V14.0107C17.1162 14.4717 17.1855 14.8086 17.3242 15.0215C17.4648 15.2344 17.6855 15.3408 17.9863 15.3408C18.2578 15.3408 18.46 15.2793 18.5928 15.1562C18.7275 15.0312 18.8047 14.8389 18.8242 14.5791H19.7031Z" fill="#1B6501"/>
<rect x="3.5" y="0.5" width="25.25" height="27" rx="2.5" stroke="#1B6501"/>
<circle cx="7.5" cy="4.5" r="1.5" fill="#1B6501"/>
<circle cx="24.5" cy="4.5" r="1.5" fill="#1B6501"/>
<circle cx="7.5" cy="23.5" r="1.5" fill="#1B6501"/>
<path d="M26 23.5C26 24.3284 25.3284 25 24.5 25C23.6716 25 23 24.3284 23 23.5C23 22.6716 23.6716 22 24.5 22C25.3284 22 26 22.6716 26 23.5Z" fill="#1B6501"/>
<rect x="13" y="1" width="0.5" height="4" fill="#1B6501"/>
<rect x="15" y="1" width="0.5" height="4" fill="#1B6501"/>
<rect x="17" y="1" width="0.5" height="4" fill="#1B6501"/>
<rect x="19" y="1" width="0.5" height="4" fill="#1B6501"/>
<rect x="13" y="23" width="0.5" height="4" fill="#1B6501"/>
<rect x="15" y="23" width="0.5" height="4" fill="#1B6501"/>
<rect x="17" y="23" width="0.5" height="4" fill="#1B6501"/>
<rect x="19" y="23" width="0.5" height="4" fill="#1B6501"/>
<rect x="4" y="10" width="4" height="0.5" fill="#1B6501"/>
<rect x="4" y="12" width="4" height="0.5" fill="#1B6501"/>
<rect x="4" y="14" width="4" height="0.5" fill="#1B6501"/>
<rect x="4" y="16" width="4" height="0.5" fill="#1B6501"/>
<path d="M24.2619 10H28.2619V10.5H24.2619V10Z" fill="#1B6501"/>
<path d="M24.2619 12H28.2619V12.5H24.2619V12Z" fill="#1B6501"/>
<path d="M24.2619 14H28.2619V14.5H24.2619V14Z" fill="#1B6501"/>
<path d="M24.2619 16H28.2619V16.5H24.2619V16Z" fill="#1B6501"/>
<rect x="13" y="18" width="0.5" height="1.5" fill="#1B6501"/>
<rect x="15" y="18" width="0.5" height="1.5" fill="#1B6501"/>
<rect x="17" y="18" width="0.5" height="1.5" fill="#1B6501"/>
<rect x="19" y="18" width="0.5" height="1.5" fill="#1B6501"/>
<rect x="19" y="19" width="2" height="0.5" fill="#1B6501"/>
<path d="M11.5 19H13.5V19.5H11.5V19Z" fill="#1B6501"/>
<path d="M19.5 10H19V8.5H19.5V10Z" fill="#1B6501"/>
<path d="M15.5 10H15V8.5H15.5V10Z" fill="#1B6501"/>
<path d="M17.5 10H17V8.5H17.5V10Z" fill="#1B6501"/>
<path d="M13.5 10H13V8.5H13.5V10Z" fill="#1B6501"/>
<path d="M13.5 9H11.5V8.5H13.5V9Z" fill="#1B6501"/>
<path d="M21 9H19V8.5H21V9Z" fill="#1B6501"/>
<path d="M28.2498 7H32.2498V8H28.2498V7Z" fill="#1B6501"/>
<path d="M28.2498 11H32.2498V12H28.2498V11Z" fill="#1B6501"/>
<path d="M28.2498 15H32.2498V16H28.2498V15Z" fill="#1B6501"/>
<path d="M28.2498 19H32.2498V20H28.2498V19Z" fill="#1B6501"/>
<path d="M0 7H4V8H0V7Z" fill="#1B6501"/>
<path d="M0 11H4V12H0V11Z" fill="#1B6501"/>
<path d="M0 15H4V16H0V15Z" fill="#1B6501"/>
<path d="M0 19H4V20H0V19Z" fill="#1B6501"/>
<rect x="8" y="27" width="1" height="4" fill="#1B6501"/>
<rect x="13" y="27" width="1" height="4" fill="#1B6501"/>
<rect x="18" y="27" width="1" height="4" fill="#1B6501"/>
<rect x="23" y="27" width="1" height="4" fill="#1B6501"/>
</svg>
