<svg width="33" height="36" viewBox="0 0 33 36" fill="none" xmlns="http://www.w3.org/2000/svg">
<path d="M12.4668 19V14.7344H13.7793C14.1543 14.7344 14.4893 14.8193 14.7842 14.9893C15.0811 15.1572 15.3125 15.3975 15.4785 15.71C15.6445 16.0205 15.7275 16.374 15.7275 16.7705V16.9668C15.7275 17.3633 15.6455 17.7158 15.4814 18.0244C15.3193 18.333 15.0898 18.5723 14.793 18.7422C14.4961 18.9121 14.1611 18.998 13.7881 19H12.4668ZM13.3457 15.4463V18.2939H13.7705C14.1143 18.2939 14.377 18.1816 14.5586 17.957C14.7402 17.7324 14.833 17.4111 14.8369 16.9932V16.7676C14.8369 16.334 14.7471 16.0059 14.5674 15.7832C14.3877 15.5586 14.125 15.4463 13.7793 15.4463H13.3457ZM19.7178 17.5791C19.6846 18.0381 19.5146 18.3994 19.208 18.6631C18.9033 18.9268 18.501 19.0586 18.001 19.0586C17.4541 19.0586 17.0234 18.875 16.709 18.5078C16.3965 18.1387 16.2402 17.6328 16.2402 16.9902V16.7295C16.2402 16.3193 16.3125 15.958 16.457 15.6455C16.6016 15.333 16.8076 15.0938 17.0752 14.9277C17.3447 14.7598 17.6572 14.6758 18.0127 14.6758C18.5049 14.6758 18.9014 14.8076 19.2021 15.0713C19.5029 15.335 19.6768 15.7051 19.7236 16.1816H18.8447C18.8232 15.9062 18.7461 15.707 18.6133 15.584C18.4824 15.459 18.2822 15.3965 18.0127 15.3965C17.7197 15.3965 17.5 15.502 17.3535 15.7129C17.209 15.9219 17.1348 16.2471 17.1309 16.6885V17.0107C17.1309 17.4717 17.2002 17.8086 17.3389 18.0215C17.4795 18.2344 17.7002 18.3408 18.001 18.3408C18.2725 18.3408 18.4746 18.2793 18.6074 18.1562C18.7422 18.0312 18.8193 17.8389 18.8389 17.5791H19.7178Z" fill="#B20000"/>
<rect x="3.5" y="3.5" width="25.25" height="27" rx="2.5" stroke="#B20000"/>
<circle cx="7.5" cy="7.5" r="1.5" fill="#B20000"/>
<circle cx="24.5" cy="7.5" r="1.5" fill="#B20000"/>
<circle cx="7.5" cy="26.5" r="1.5" fill="#B20000"/>
<path d="M26 26.5C26 27.3284 25.3284 28 24.5 28C23.6716 28 23 27.3284 23 26.5C23 25.6716 23.6716 25 24.5 25C25.3284 25 26 25.6716 26 26.5Z" fill="#B20000"/>
<rect x="8" width="1" height="4" fill="#B20000"/>
<rect x="13" width="1" height="4" fill="#B20000"/>
<rect x="18" width="1" height="4" fill="#B20000"/>
<rect x="23" width="1" height="4" fill="#B20000"/>
<rect x="13" y="4" width="0.5" height="4" fill="#B20000"/>
<rect x="15" y="4" width="0.5" height="4" fill="#B20000"/>
<rect x="17" y="4" width="0.5" height="4" fill="#B20000"/>
<rect x="19" y="4" width="0.5" height="4" fill="#B20000"/>
<rect x="13" y="26" width="0.5" height="4" fill="#B20000"/>
<rect x="15" y="26" width="0.5" height="4" fill="#B20000"/>
<rect x="17" y="26" width="0.5" height="4" fill="#B20000"/>
<rect x="19" y="26" width="0.5" height="4" fill="#B20000"/>
<rect x="4" y="13" width="4" height="0.5" fill="#B20000"/>
<rect x="4" y="15" width="4" height="0.5" fill="#B20000"/>
<rect x="4" y="17" width="4" height="0.5" fill="#B20000"/>
<rect x="4" y="19" width="4" height="0.5" fill="#B20000"/>
<path d="M24.2619 13H28.2619V13.5H24.2619V13Z" fill="#B20000"/>
<path d="M24.2619 15H28.2619V15.5H24.2619V15Z" fill="#B20000"/>
<path d="M24.2619 17H28.2619V17.5H24.2619V17Z" fill="#B20000"/>
<path d="M24.2619 19H28.2619V19.5H24.2619V19Z" fill="#B20000"/>
<rect x="13" y="21" width="0.5" height="1.5" fill="#B20000"/>
<rect x="15" y="21" width="0.5" height="1.5" fill="#B20000"/>
<rect x="17" y="21" width="0.5" height="1.5" fill="#B20000"/>
<rect x="19" y="21" width="0.5" height="1.5" fill="#B20000"/>
<rect x="19" y="22" width="2" height="0.5" fill="#B20000"/>
<path d="M11.5 22H13.5V22.5H11.5V22Z" fill="#B20000"/>
<path d="M19.5 13H19V11.5H19.5V13Z" fill="#B20000"/>
<path d="M15.5 13H15V11.5H15.5V13Z" fill="#B20000"/>
<path d="M17.5 13H17V11.5H17.5V13Z" fill="#B20000"/>
<path d="M13.5 13H13V11.5H13.5V13Z" fill="#B20000"/>
<path d="M13.5 12H11.5V11.5H13.5V12Z" fill="#B20000"/>
<path d="M21 12H19V11.5H21V12Z" fill="#B20000"/>
<path d="M28.2498 10H32.2498V11H28.2498V10Z" fill="#B20000"/>
<path d="M28.2498 14H32.2498V15H28.2498V14Z" fill="#B20000"/>
<path d="M28.2498 18H32.2498V19H28.2498V18Z" fill="#B20000"/>
<path d="M28.2498 22H32.2498V23H28.2498V22Z" fill="#B20000"/>
<path d="M0 10H4V11H0V10Z" fill="#B20000"/>
<path d="M0 14H4V15H0V14Z" fill="#B20000"/>
<path d="M0 18H4V19H0V18Z" fill="#B20000"/>
<path d="M0 22H4V23H0V22Z" fill="#B20000"/>
<rect x="8" y="30" width="1" height="4" fill="#B20000"/>
<rect x="13" y="30" width="1" height="4" fill="#B20000"/>
<rect x="18" y="30" width="1" height="4" fill="#B20000"/>
<rect x="23" y="30" width="1" height="4" fill="#B20000"/>
</svg>
