<svg width="18" height="28" viewBox="0 0 18 28" fill="none" xmlns="http://www.w3.org/2000/svg">
<rect x="0.5" y="0.5" width="16.5" height="27" rx="1.5" fill="white" stroke="#036363"/>
<path d="M3.5 8.75001L8.75 7.50867L14 8.75001" stroke="#036363" stroke-width="0.5"/>
<path d="M3.5 5.25001L8.75 4.00867L14 5.25001" stroke="#036363" stroke-width="0.5"/>
<path d="M3.5 12.25L8.75 11.0087L14 12.25" stroke="#036363" stroke-width="0.5"/>
<path d="M6.125 14C6.125 14.4832 5.73325 14.875 5.25 14.875C4.76675 14.875 4.375 14.4832 4.375 14C4.375 13.5168 4.76675 13.125 5.25 13.125C5.73325 13.125 6.125 13.5168 6.125 14Z" fill="#036363"/>
<path d="M9.625 14C9.625 14.4832 9.23325 14.875 8.75 14.875C8.26675 14.875 7.875 14.4832 7.875 14C7.875 13.5168 8.26675 13.125 8.75 13.125C9.23325 13.125 9.625 13.5168 9.625 14Z" fill="#036363"/>
<path d="M13.125 14C13.125 14.4832 12.7332 14.875 12.25 14.875C11.7668 14.875 11.375 14.4832 11.375 14C11.375 13.5168 11.7668 13.125 12.25 13.125C12.7332 13.125 13.125 13.5168 13.125 14Z" fill="#036363"/>
<path d="M6.25977 21.4971V23H5.38086V18.7344H7.04492C7.36523 18.7344 7.64648 18.793 7.88867 18.9102C8.13281 19.0273 8.32031 19.1943 8.45117 19.4111C8.58203 19.626 8.64746 19.8711 8.64746 20.1465C8.64746 20.5645 8.50391 20.8945 8.2168 21.1367C7.93164 21.377 7.53613 21.4971 7.03027 21.4971H6.25977ZM6.25977 20.7852H7.04492C7.27734 20.7852 7.4541 20.7305 7.5752 20.6211C7.69824 20.5117 7.75977 20.3555 7.75977 20.1523C7.75977 19.9434 7.69824 19.7744 7.5752 19.6455C7.45215 19.5166 7.28223 19.4502 7.06543 19.4463H6.25977V20.7852ZM12.6025 21.5791C12.5693 22.0381 12.3994 22.3994 12.0928 22.6631C11.7881 22.9268 11.3857 23.0586 10.8857 23.0586C10.3389 23.0586 9.9082 22.875 9.59375 22.5078C9.28125 22.1387 9.125 21.6328 9.125 20.9902V20.7295C9.125 20.3193 9.19727 19.958 9.3418 19.6455C9.48633 19.333 9.69238 19.0938 9.95996 18.9277C10.2295 18.7598 10.542 18.6758 10.8975 18.6758C11.3896 18.6758 11.7861 18.8076 12.0869 19.0713C12.3877 19.335 12.5615 19.7051 12.6084 20.1816H11.7295C11.708 19.9062 11.6309 19.707 11.498 19.584C11.3672 19.459 11.167 19.3965 10.8975 19.3965C10.6045 19.3965 10.3848 19.502 10.2383 19.7129C10.0938 19.9219 10.0195 20.2471 10.0156 20.6885V21.0107C10.0156 21.4717 10.085 21.8086 10.2236 22.0215C10.3643 22.2344 10.585 22.3408 10.8857 22.3408C11.1572 22.3408 11.3594 22.2793 11.4922 22.1562C11.627 22.0312 11.7041 21.8389 11.7236 21.5791H12.6025Z" fill="#036363"/>
</svg>
