<svg width="18" height="28" viewBox="0 0 18 28" fill="none" xmlns="http://www.w3.org/2000/svg">
<rect x="0.5" y="0.5" width="16.5" height="27" rx="1.5" fill="white" stroke="#8400B2"/>
<path d="M3.5 8.75001L8.75 7.50867L14 8.75001" stroke="#8400B2" stroke-width="0.5"/>
<path d="M3.5 5.25001L8.75 4.00867L14 5.25001" stroke="#8400B2" stroke-width="0.5"/>
<path d="M3.5 12.25L8.75 11.0087L14 12.25" stroke="#8400B2" stroke-width="0.5"/>
<path d="M6.125 14C6.125 14.4832 5.73325 14.875 5.25 14.875C4.76675 14.875 4.375 14.4832 4.375 14C4.375 13.5168 4.76675 13.125 5.25 13.125C5.73325 13.125 6.125 13.5168 6.125 14Z" fill="#8400B2"/>
<path d="M9.625 14C9.625 14.4832 9.23325 14.875 8.75 14.875C8.26675 14.875 7.875 14.4832 7.875 14C7.875 13.5168 8.26675 13.125 8.75 13.125C9.23325 13.125 9.625 13.5168 9.625 14Z" fill="#8400B2"/>
<path d="M13.125 14C13.125 14.4832 12.7332 14.875 12.25 14.875C11.7668 14.875 11.375 14.4832 11.375 14C11.375 13.5168 11.7668 13.125 12.25 13.125C12.7332 13.125 13.125 13.5168 13.125 14Z" fill="#8400B2"/>
<path d="M5.38086 23V18.7344H6.69336C7.06836 18.7344 7.40332 18.8193 7.69824 18.9893C7.99512 19.1572 8.22656 19.3975 8.39258 19.71C8.55859 20.0205 8.6416 20.374 8.6416 20.7705V20.9668C8.6416 21.3633 8.55957 21.7158 8.39551 22.0244C8.2334 22.333 8.00391 22.5723 7.70703 22.7422C7.41016 22.9121 7.0752 22.998 6.70215 23H5.38086ZM6.25977 19.4463V22.2939H6.68457C7.02832 22.2939 7.29102 22.1816 7.47266 21.957C7.6543 21.7324 7.74707 21.4111 7.75098 20.9932V20.7676C7.75098 20.334 7.66113 20.0059 7.48145 19.7832C7.30176 19.5586 7.03906 19.4463 6.69336 19.4463H6.25977ZM12.6318 21.5791C12.5986 22.0381 12.4287 22.3994 12.1221 22.6631C11.8174 22.9268 11.415 23.0586 10.915 23.0586C10.3682 23.0586 9.9375 22.875 9.62305 22.5078C9.31055 22.1387 9.1543 21.6328 9.1543 20.9902V20.7295C9.1543 20.3193 9.22656 19.958 9.37109 19.6455C9.51562 19.333 9.72168 19.0938 9.98926 18.9277C10.2588 18.7598 10.5713 18.6758 10.9268 18.6758C11.4189 18.6758 11.8154 18.8076 12.1162 19.0713C12.417 19.335 12.5908 19.7051 12.6377 20.1816H11.7588C11.7373 19.9062 11.6602 19.707 11.5273 19.584C11.3965 19.459 11.1963 19.3965 10.9268 19.3965C10.6338 19.3965 10.4141 19.502 10.2676 19.7129C10.123 19.9219 10.0488 20.2471 10.0449 20.6885V21.0107C10.0449 21.4717 10.1143 21.8086 10.2529 22.0215C10.3936 22.2344 10.6143 22.3408 10.915 22.3408C11.1865 22.3408 11.3887 22.2793 11.5215 22.1562C11.6562 22.0312 11.7334 21.8389 11.7529 21.5791H12.6318Z" fill="#8400B2"/>
</svg>
