<svg width="66" height="48" viewBox="0 0 66 48" fill="none" xmlns="http://www.w3.org/2000/svg">
<path d="M8.60638 38.0442L8.60638 20.5625L41.1064 29.4261L41.1064 46.9079L8.60638 38.0442Z" fill="#5E5A5A" stroke="black" stroke-width="0.5"/>
<path d="M41.6064 46.6316L41.6064 29.3387L55.1064 15.8387L55.1064 33.1316L41.6064 46.6316Z" fill="#5E5A5A" stroke="black" stroke-width="0.5"/>
<path d="M8.83778 20.1073L22.4306 6.51453L54.875 15.363L41.2822 28.9558L8.83778 20.1073Z" fill="#838282" stroke="black" stroke-width="0.5"/>
<rect x="44.5332" y="28.2835" width="9.7053" height="2.37221" rx="1.18611" transform="rotate(-45.0744 44.5332 28.2835)" fill="#B0A6A6" stroke="black" stroke-width="0.25"/>
<circle cx="23.9296" cy="33.8084" r="6.5" transform="rotate(15 23.9296 33.8084)" stroke="#D40000"/>
<path d="M19.9161 34.8035L21.0202 30.6833L22.2879 31.023C22.6502 31.12 22.9517 31.2888 23.1926 31.5292C23.4359 31.7683 23.5973 32.0603 23.6768 32.4051C23.7567 32.748 23.7454 33.111 23.6428 33.4939L23.592 33.6835C23.4894 34.0665 23.3189 34.3858 23.0806 34.6414C22.8441 34.8976 22.5605 35.0693 22.2298 35.1566C21.899 35.2439 21.5532 35.2402 21.1924 35.1455L19.9161 34.8035ZM21.6849 31.5984L20.9478 34.349L21.3582 34.459C21.6902 34.5479 21.973 34.5074 22.2066 34.3375C22.4402 34.1676 22.6129 33.8812 22.7249 33.4785L22.7833 33.2606C22.8955 32.8418 22.8936 32.5016 22.7777 32.24C22.6623 31.9766 22.4376 31.8001 22.1037 31.7106L21.6849 31.5984ZM27.2878 35.3077C27.1369 35.7425 26.8793 36.0475 26.5148 36.2228C26.1523 36.3987 25.7295 36.4219 25.2466 36.2925C24.7183 36.1509 24.3499 35.8621 24.1412 35.4261C23.9348 34.9886 23.9148 34.4596 24.0812 33.8389L24.1486 33.587C24.2548 33.1908 24.4181 32.8605 24.6386 32.5961C24.8591 32.3316 25.1201 32.1539 25.4215 32.0628C25.7253 31.9703 26.0489 31.97 26.3923 32.062C26.8677 32.1894 27.2165 32.4194 27.4388 32.7519C27.6611 33.0845 27.7332 33.487 27.6551 33.9594L26.8062 33.7319C26.8567 33.4604 26.8338 33.248 26.7373 33.0947C26.6433 32.9401 26.4661 32.8279 26.2057 32.7582C25.9227 32.6824 25.6832 32.7274 25.4871 32.8932C25.2934 33.0577 25.1376 33.3526 25.0195 33.7779L24.9361 34.0892C24.8168 34.5344 24.7966 34.8778 24.8755 35.1193C24.9562 35.3614 25.1418 35.5213 25.4323 35.5992C25.6946 35.6694 25.9058 35.6623 26.0659 35.5778C26.2284 35.492 26.3527 35.3261 26.4388 35.0803L27.2878 35.3077Z" fill="#D40000"/>
<path d="M15.9858 12.7522L48.9809 21.5932L48.8515 22.0762L15.8564 13.2352L15.9858 12.7522Z" fill="black"/>
</svg>
