<svg width="28" height="28" viewBox="0 0 28 28" fill="none" xmlns="http://www.w3.org/2000/svg">
<rect x="0.5" y="0.5" width="27" height="27" rx="1.5" fill="white" stroke="#B20056"/>
<line y1="10" x2="28" y2="10" stroke="#B20056"/>
<line y1="18.75" x2="28" y2="18.75" stroke="#B20056"/>
<path d="M7.875 12.6875C7.875 12.9291 7.67912 13.125 7.4375 13.125C7.19588 13.125 7 12.9291 7 12.6875C7 12.4459 7.19588 12.25 7.4375 12.25C7.67912 12.25 7.875 12.4459 7.875 12.6875Z" fill="#B20056"/>
<path d="M6.125 12.6875C6.125 12.9291 5.92912 13.125 5.6875 13.125C5.44588 13.125 5.25 12.9291 5.25 12.6875C5.25 12.4459 5.44588 12.25 5.6875 12.25C5.92912 12.25 6.125 12.4459 6.125 12.6875Z" fill="#B20056"/>
<path d="M4.375 12.6875C4.375 12.9291 4.17912 13.125 3.9375 13.125C3.69588 13.125 3.5 12.9291 3.5 12.6875C3.5 12.4459 3.69588 12.25 3.9375 12.25C4.17912 12.25 4.375 12.4459 4.375 12.6875Z" fill="#B20056"/>
<path d="M7.875 14.4375C7.875 14.6791 7.67912 14.875 7.4375 14.875C7.19588 14.875 7 14.6791 7 14.4375C7 14.1959 7.19588 14 7.4375 14C7.67912 14 7.875 14.1959 7.875 14.4375Z" fill="#B20056"/>
<path d="M6.125 14.4375C6.125 14.6791 5.92912 14.875 5.6875 14.875C5.44588 14.875 5.25 14.6791 5.25 14.4375C5.25 14.1959 5.44588 14 5.6875 14C5.92912 14 6.125 14.1959 6.125 14.4375Z" fill="#B20056"/>
<path d="M4.375 14.4375C4.375 14.6791 4.17912 14.875 3.9375 14.875C3.69588 14.875 3.5 14.6791 3.5 14.4375C3.5 14.1959 3.69588 14 3.9375 14C4.17912 14 4.375 14.1959 4.375 14.4375Z" fill="#B20056"/>
<path d="M7.875 16.1875C7.875 16.4291 7.67912 16.625 7.4375 16.625C7.19588 16.625 7 16.4291 7 16.1875C7 15.9459 7.19588 15.75 7.4375 15.75C7.67912 15.75 7.875 15.9459 7.875 16.1875Z" fill="#B20056"/>
<path d="M6.125 16.1875C6.125 16.4291 5.92912 16.625 5.6875 16.625C5.44588 16.625 5.25 16.4291 5.25 16.1875C5.25 15.9459 5.44588 15.75 5.6875 15.75C5.92912 15.75 6.125 15.9459 6.125 16.1875Z" fill="#B20056"/>
<path d="M4.375 16.1875C4.375 16.4291 4.17912 16.625 3.9375 16.625C3.69588 16.625 3.5 16.4291 3.5 16.1875C3.5 15.9459 3.69588 15.75 3.9375 15.75C4.17912 15.75 4.375 15.9459 4.375 16.1875Z" fill="#B20056"/>
<path d="M7.875 3.9375C7.875 4.17912 7.67912 4.375 7.4375 4.375C7.19588 4.375 7 4.17912 7 3.9375C7 3.69588 7.19588 3.5 7.4375 3.5C7.67912 3.5 7.875 3.69588 7.875 3.9375Z" fill="#B20056"/>
<path d="M6.125 3.9375C6.125 4.17912 5.92912 4.375 5.6875 4.375C5.44588 4.375 5.25 4.17912 5.25 3.9375C5.25 3.69588 5.44588 3.5 5.6875 3.5C5.92912 3.5 6.125 3.69588 6.125 3.9375Z" fill="#B20056"/>
<path d="M4.375 3.9375C4.375 4.17912 4.17912 4.375 3.9375 4.375C3.69588 4.375 3.5 4.17912 3.5 3.9375C3.5 3.69588 3.69588 3.5 3.9375 3.5C4.17912 3.5 4.375 3.69588 4.375 3.9375Z" fill="#B20056"/>
<path d="M7.875 5.6875C7.875 5.92912 7.67912 6.125 7.4375 6.125C7.19588 6.125 7 5.92912 7 5.6875C7 5.44588 7.19588 5.25 7.4375 5.25C7.67912 5.25 7.875 5.44588 7.875 5.6875Z" fill="#B20056"/>
<path d="M6.125 5.6875C6.125 5.92912 5.92912 6.125 5.6875 6.125C5.44588 6.125 5.25 5.92912 5.25 5.6875C5.25 5.44588 5.44588 5.25 5.6875 5.25C5.92912 5.25 6.125 5.44588 6.125 5.6875Z" fill="#B20056"/>
<path d="M4.375 5.6875C4.375 5.92912 4.17912 6.125 3.9375 6.125C3.69588 6.125 3.5 5.92912 3.5 5.6875C3.5 5.44588 3.69588 5.25 3.9375 5.25C4.17912 5.25 4.375 5.44588 4.375 5.6875Z" fill="#B20056"/>
<path d="M7.875 7.4375C7.875 7.67912 7.67912 7.875 7.4375 7.875C7.19588 7.875 7 7.67912 7 7.4375C7 7.19588 7.19588 7 7.4375 7C7.67912 7 7.875 7.19588 7.875 7.4375Z" fill="#B20056"/>
<path d="M6.125 7.4375C6.125 7.67912 5.92912 7.875 5.6875 7.875C5.44588 7.875 5.25 7.67912 5.25 7.4375C5.25 7.19588 5.44588 7 5.6875 7C5.92912 7 6.125 7.19588 6.125 7.4375Z" fill="#B20056"/>
<path d="M4.375 7.4375C4.375 7.67912 4.17912 7.875 3.9375 7.875C3.69588 7.875 3.5 7.67912 3.5 7.4375C3.5 7.19588 3.69588 7 3.9375 7C4.17912 7 4.375 7.19588 4.375 7.4375Z" fill="#B20056"/>
<path d="M7.875 21.4375C7.875 21.6791 7.67912 21.875 7.4375 21.875C7.19588 21.875 7 21.6791 7 21.4375C7 21.1959 7.19588 21 7.4375 21C7.67912 21 7.875 21.1959 7.875 21.4375Z" fill="#B20056"/>
<path d="M6.125 21.4375C6.125 21.6791 5.92912 21.875 5.6875 21.875C5.44588 21.875 5.25 21.6791 5.25 21.4375C5.25 21.1959 5.44588 21 5.6875 21C5.92912 21 6.125 21.1959 6.125 21.4375Z" fill="#B20056"/>
<path d="M4.375 21.4375C4.375 21.6791 4.17912 21.875 3.9375 21.875C3.69588 21.875 3.5 21.6791 3.5 21.4375C3.5 21.1959 3.69588 21 3.9375 21C4.17912 21 4.375 21.1959 4.375 21.4375Z" fill="#B20056"/>
<path d="M7.875 23.1875C7.875 23.4291 7.67912 23.625 7.4375 23.625C7.19588 23.625 7 23.4291 7 23.1875C7 22.9459 7.19588 22.75 7.4375 22.75C7.67912 22.75 7.875 22.9459 7.875 23.1875Z" fill="#B20056"/>
<path d="M6.125 23.1875C6.125 23.4291 5.92912 23.625 5.6875 23.625C5.44588 23.625 5.25 23.4291 5.25 23.1875C5.25 22.9459 5.44588 22.75 5.6875 22.75C5.92912 22.75 6.125 22.9459 6.125 23.1875Z" fill="#B20056"/>
<path d="M4.375 23.1875C4.375 23.4291 4.17912 23.625 3.9375 23.625C3.69588 23.625 3.5 23.4291 3.5 23.1875C3.5 22.9459 3.69588 22.75 3.9375 22.75C4.17912 22.75 4.375 22.9459 4.375 23.1875Z" fill="#B20056"/>
<path d="M7.875 24.9375C7.875 25.1791 7.67912 25.375 7.4375 25.375C7.19588 25.375 7 25.1791 7 24.9375C7 24.6959 7.19588 24.5 7.4375 24.5C7.67912 24.5 7.875 24.6959 7.875 24.9375Z" fill="#B20056"/>
<path d="M6.125 24.9375C6.125 25.1791 5.92912 25.375 5.6875 25.375C5.44588 25.375 5.25 25.1791 5.25 24.9375C5.25 24.6959 5.44588 24.5 5.6875 24.5C5.92912 24.5 6.125 24.6959 6.125 24.9375Z" fill="#B20056"/>
<path d="M4.375 24.9375C4.375 25.1791 4.17912 25.375 3.9375 25.375C3.69588 25.375 3.5 25.1791 3.5 24.9375C3.5 24.6959 3.69588 24.5 3.9375 24.5C4.17912 24.5 4.375 24.6959 4.375 24.9375Z" fill="#B20056"/>
<path d="M14 24.5H24.5" stroke="#B20056" stroke-width="0.25"/>
<path d="M17.5 22.75H24.5" stroke="#B20056" stroke-width="0.25"/>
<path d="M19.0839 21H24.5" stroke="#B20056" stroke-width="0.25"/>
<path d="M14 15.75H24.5" stroke="#B20056" stroke-width="0.25"/>
<path d="M17.5 14H24.5" stroke="#B20056" stroke-width="0.25"/>
<path d="M19.0839 12.25H24.5" stroke="#B20056" stroke-width="0.25"/>
<path d="M14 7H24.5" stroke="#B20056" stroke-width="0.25"/>
<path d="M17.5 5.25H24.5" stroke="#B20056" stroke-width="0.25"/>
<path d="M19.0839 3.5H24.5" stroke="#B20056" stroke-width="0.25"/>
</svg>
