<svg width="28" height="28" viewBox="0 0 28 28" fill="none" xmlns="http://www.w3.org/2000/svg">
<rect x="0.5" y="0.5" width="27" height="27" rx="1.5" fill="white" stroke="#E48900"/>
<line y1="10" x2="28" y2="10" stroke="#E48900"/>
<line y1="18.75" x2="28" y2="18.75" stroke="#E48900"/>
<path d="M14 24.5H24.5" stroke="#E48900" stroke-width="0.25"/>
<path d="M17.5 22.75H24.5" stroke="#BC0000" stroke-width="0.25"/>
<path d="M19.0839 21H24.5" stroke="#E48900" stroke-width="0.25"/>
<path d="M14 15.75H24.5" stroke="#E48900" stroke-width="0.25"/>
<path d="M17.5 14H24.5" stroke="#BC0000" stroke-width="0.25"/>
<path d="M19.0839 12.25H24.5" stroke="#E48900" stroke-width="0.25"/>
<path d="M14 7H24.5" stroke="#E48900"/>
<path d="M17.5 5.25H24.5" stroke="#BC0000"/>
<path d="M19.0839 3.5H24.5" stroke="#E48900"/>
<path d="M14 15.5H24.5" stroke="#E48900"/>
<path d="M17.5 13.75H24.5" stroke="#BC0000"/>
<path d="M19.0839 12H24.5" stroke="#E48900"/>
<path d="M14 24.5H24.5" stroke="#E48900"/>
<path d="M17.5 22.75H24.5" stroke="#BC0000"/>
<path d="M19.0839 21H24.5" stroke="#E48900"/>
<path d="M7.375 3.4375C7.375 3.67912 7.17912 3.875 6.9375 3.875C6.69588 3.875 6.5 3.67912 6.5 3.4375C6.5 3.19588 6.69588 3 6.9375 3C7.17912 3 7.375 3.19588 7.375 3.4375Z" fill="#BC0000"/>
<path d="M5.625 3.4375C5.625 3.67912 5.42912 3.875 5.1875 3.875C4.94588 3.875 4.75 3.67912 4.75 3.4375C4.75 3.19588 4.94588 3 5.1875 3C5.42912 3 5.625 3.19588 5.625 3.4375Z" fill="#BC0000"/>
<path d="M3.875 3.4375C3.875 3.67912 3.67912 3.875 3.4375 3.875C3.19588 3.875 3 3.67912 3 3.4375C3 3.19588 3.19588 3 3.4375 3C3.67912 3 3.875 3.19588 3.875 3.4375Z" fill="#BC0000"/>
<path d="M7.375 5.1875C7.375 5.42912 7.17912 5.625 6.9375 5.625C6.69588 5.625 6.5 5.42912 6.5 5.1875C6.5 4.94588 6.69588 4.75 6.9375 4.75C7.17912 4.75 7.375 4.94588 7.375 5.1875Z" fill="#BC0000"/>
<path d="M5.625 5.1875C5.625 5.42912 5.42912 5.625 5.1875 5.625C4.94588 5.625 4.75 5.42912 4.75 5.1875C4.75 4.94588 4.94588 4.75 5.1875 4.75C5.42912 4.75 5.625 4.94588 5.625 5.1875Z" fill="#BC0000"/>
<path d="M3.875 5.1875C3.875 5.42912 3.67912 5.625 3.4375 5.625C3.19588 5.625 3 5.42912 3 5.1875C3 4.94588 3.19588 4.75 3.4375 4.75C3.67912 4.75 3.875 4.94588 3.875 5.1875Z" fill="#BC0000"/>
<path d="M7.375 6.9375C7.375 7.17912 7.17912 7.375 6.9375 7.375C6.69588 7.375 6.5 7.17912 6.5 6.9375C6.5 6.69588 6.69588 6.5 6.9375 6.5C7.17912 6.5 7.375 6.69588 7.375 6.9375Z" fill="#BC0000"/>
<path d="M5.625 6.9375C5.625 7.17912 5.42912 7.375 5.1875 7.375C4.94588 7.375 4.75 7.17912 4.75 6.9375C4.75 6.69588 4.94588 6.5 5.1875 6.5C5.42912 6.5 5.625 6.69588 5.625 6.9375Z" fill="#BC0000"/>
<path d="M3.875 6.9375C3.875 7.17912 3.67912 7.375 3.4375 7.375C3.19588 7.375 3 7.17912 3 6.9375C3 6.69588 3.19588 6.5 3.4375 6.5C3.67912 6.5 3.875 6.69588 3.875 6.9375Z" fill="#BC0000"/>
<path d="M7.375 12.4375C7.375 12.6791 7.17912 12.875 6.9375 12.875C6.69588 12.875 6.5 12.6791 6.5 12.4375C6.5 12.1959 6.69588 12 6.9375 12C7.17912 12 7.375 12.1959 7.375 12.4375Z" fill="#BC0000"/>
<path d="M5.625 12.4375C5.625 12.6791 5.42912 12.875 5.1875 12.875C4.94588 12.875 4.75 12.6791 4.75 12.4375C4.75 12.1959 4.94588 12 5.1875 12C5.42912 12 5.625 12.1959 5.625 12.4375Z" fill="#BC0000"/>
<path d="M3.875 12.4375C3.875 12.6791 3.67912 12.875 3.4375 12.875C3.19588 12.875 3 12.6791 3 12.4375C3 12.1959 3.19588 12 3.4375 12C3.67912 12 3.875 12.1959 3.875 12.4375Z" fill="#BC0000"/>
<path d="M7.375 14.1875C7.375 14.4291 7.17912 14.625 6.9375 14.625C6.69588 14.625 6.5 14.4291 6.5 14.1875C6.5 13.9459 6.69588 13.75 6.9375 13.75C7.17912 13.75 7.375 13.9459 7.375 14.1875Z" fill="#BC0000"/>
<path d="M5.625 14.1875C5.625 14.4291 5.42912 14.625 5.1875 14.625C4.94588 14.625 4.75 14.4291 4.75 14.1875C4.75 13.9459 4.94588 13.75 5.1875 13.75C5.42912 13.75 5.625 13.9459 5.625 14.1875Z" fill="#BC0000"/>
<path d="M3.875 14.1875C3.875 14.4291 3.67912 14.625 3.4375 14.625C3.19588 14.625 3 14.4291 3 14.1875C3 13.9459 3.19588 13.75 3.4375 13.75C3.67912 13.75 3.875 13.9459 3.875 14.1875Z" fill="#BC0000"/>
<path d="M7.375 15.9375C7.375 16.1791 7.17912 16.375 6.9375 16.375C6.69588 16.375 6.5 16.1791 6.5 15.9375C6.5 15.6959 6.69588 15.5 6.9375 15.5C7.17912 15.5 7.375 15.6959 7.375 15.9375Z" fill="#BC0000"/>
<path d="M5.625 15.9375C5.625 16.1791 5.42912 16.375 5.1875 16.375C4.94588 16.375 4.75 16.1791 4.75 15.9375C4.75 15.6959 4.94588 15.5 5.1875 15.5C5.42912 15.5 5.625 15.6959 5.625 15.9375Z" fill="#BC0000"/>
<path d="M3.875 15.9375C3.875 16.1791 3.67912 16.375 3.4375 16.375C3.19588 16.375 3 16.1791 3 15.9375C3 15.6959 3.19588 15.5 3.4375 15.5C3.67912 15.5 3.875 15.6959 3.875 15.9375Z" fill="#BC0000"/>
<path d="M7.375 21.4375C7.375 21.6791 7.17912 21.875 6.9375 21.875C6.69588 21.875 6.5 21.6791 6.5 21.4375C6.5 21.1959 6.69588 21 6.9375 21C7.17912 21 7.375 21.1959 7.375 21.4375Z" fill="#BC0000"/>
<path d="M5.625 21.4375C5.625 21.6791 5.42912 21.875 5.1875 21.875C4.94588 21.875 4.75 21.6791 4.75 21.4375C4.75 21.1959 4.94588 21 5.1875 21C5.42912 21 5.625 21.1959 5.625 21.4375Z" fill="#BC0000"/>
<path d="M3.875 21.4375C3.875 21.6791 3.67912 21.875 3.4375 21.875C3.19588 21.875 3 21.6791 3 21.4375C3 21.1959 3.19588 21 3.4375 21C3.67912 21 3.875 21.1959 3.875 21.4375Z" fill="#BC0000"/>
<path d="M7.375 23.1875C7.375 23.4291 7.17912 23.625 6.9375 23.625C6.69588 23.625 6.5 23.4291 6.5 23.1875C6.5 22.9459 6.69588 22.75 6.9375 22.75C7.17912 22.75 7.375 22.9459 7.375 23.1875Z" fill="#BC0000"/>
<path d="M5.625 23.1875C5.625 23.4291 5.42912 23.625 5.1875 23.625C4.94588 23.625 4.75 23.4291 4.75 23.1875C4.75 22.9459 4.94588 22.75 5.1875 22.75C5.42912 22.75 5.625 22.9459 5.625 23.1875Z" fill="#BC0000"/>
<path d="M3.875 23.1875C3.875 23.4291 3.67912 23.625 3.4375 23.625C3.19588 23.625 3 23.4291 3 23.1875C3 22.9459 3.19588 22.75 3.4375 22.75C3.67912 22.75 3.875 22.9459 3.875 23.1875Z" fill="#BC0000"/>
<path d="M7.375 24.9375C7.375 25.1791 7.17912 25.375 6.9375 25.375C6.69588 25.375 6.5 25.1791 6.5 24.9375C6.5 24.6959 6.69588 24.5 6.9375 24.5C7.17912 24.5 7.375 24.6959 7.375 24.9375Z" fill="#BC0000"/>
<path d="M5.625 24.9375C5.625 25.1791 5.42912 25.375 5.1875 25.375C4.94588 25.375 4.75 25.1791 4.75 24.9375C4.75 24.6959 4.94588 24.5 5.1875 24.5C5.42912 24.5 5.625 24.6959 5.625 24.9375Z" fill="#BC0000"/>
<path d="M3.875 24.9375C3.875 25.1791 3.67912 25.375 3.4375 25.375C3.19588 25.375 3 25.1791 3 24.9375C3 24.6959 3.19588 24.5 3.4375 24.5C3.67912 24.5 3.875 24.6959 3.875 24.9375Z" fill="#BC0000"/>
</svg>
